<svg width="50" height="50" viewBox="0 0 50 50" fill="none" xmlns="http://www.w3.org/2000/svg">
    <path fill-rule="evenodd" clip-rule="evenodd" d="M36.2375 46.3625C36.7232 46.7503 37.3431 46.9294 37.9607 46.8602C38.5784 46.7911 39.1433 46.4794 39.5312 45.9938C44.2945 40.0293 46.8846 32.6206 46.875 24.9876C46.8653 17.3545 44.2565 9.95236 39.4781 4.00001C39.0886 3.51516 38.5224 3.20492 37.9041 3.13752C37.2858 3.07013 36.6661 3.2511 36.1813 3.64064C35.6964 4.03017 35.3862 4.59636 35.3188 5.21465C35.2514 5.83293 35.4323 6.45266 35.8219 6.93752C39.9329 12.0589 42.1775 18.4276 42.186 24.9949C42.1945 31.5622 39.9665 37.9367 35.8687 43.0688C35.4809 43.5545 35.3019 44.1743 35.371 44.792C35.4402 45.4097 35.7519 45.9746 36.2375 46.3625ZM24.2375 37.0813C24.4866 37.2624 24.7689 37.3926 25.0683 37.4645C25.3677 37.5365 25.6784 37.5487 25.9825 37.5005C26.2866 37.4524 26.5783 37.3447 26.8408 37.1838C27.1034 37.0228 27.3316 36.8117 27.5125 36.5625C29.9474 33.2101 31.2587 29.173 31.2587 25.0297C31.2587 20.8864 29.9474 16.8493 27.5125 13.4969C27.3323 13.2463 27.1044 13.0338 26.8419 12.8715C26.5793 12.7092 26.2873 12.6004 25.9826 12.5513C25.6779 12.5022 25.3665 12.5137 25.0662 12.5853C24.766 12.6568 24.4828 12.787 24.233 12.9683C23.9832 13.1495 23.7717 13.3784 23.6106 13.6416C23.4494 13.9049 23.3419 14.1974 23.2941 14.5023C23.2463 14.8072 23.2592 15.1186 23.3321 15.4185C23.405 15.7184 23.5364 16.001 23.7188 16.25C25.5728 18.802 26.5713 21.8754 26.5713 25.0297C26.5713 28.184 25.5728 31.2574 23.7188 33.8094C23.3543 34.3126 23.2046 34.9398 23.3024 35.5533C23.4003 36.1669 23.7346 36.7164 24.2375 37.0813ZM9.375 18.75C11.0326 18.75 12.6223 19.4085 13.7944 20.5806C14.9665 21.7527 15.625 23.3424 15.625 25C15.625 26.6576 14.9665 28.2473 13.7944 29.4194C12.6223 30.5915 11.0326 31.25 9.375 31.25C7.7174 31.25 6.12769 30.5915 4.95558 29.4194C3.78348 28.2473 3.125 26.6576 3.125 25C3.125 23.3424 3.78348 21.7527 4.95558 20.5806C6.12769 19.4085 7.7174 18.75 9.375 18.75Z" fill="#9579E5" fill-opacity="0.29"/>
</svg>
