<svg width="50" height="50" viewBox="0 0 50 50" fill="none" xmlns="http://www.w3.org/2000/svg">
    <path d="M34.3748 11.4583C35.4799 11.4583 36.5397 11.0193 37.3211 10.2379C38.1025 9.45654 38.5415 8.39674 38.5415 7.29167C38.5415 6.1866 38.1025 5.12679 37.3211 4.34539C36.5397 3.56399 35.4799 3.125 34.3748 3.125C33.2698 3.125 32.21 3.56399 31.4286 4.34539C30.6472 5.12679 30.2082 6.1866 30.2082 7.29167C30.2082 8.39674 30.6472 9.45654 31.4286 10.2379C32.21 11.0193 33.2698 11.4583 34.3748 11.4583ZM26.8748 40.4167L28.9582 31.25L33.3332 35.4167V47.9167H37.4998V32.2917L33.1248 28.125L34.3748 21.875C35.8023 23.5107 37.5635 24.8218 39.5399 25.7202C41.5163 26.6185 43.6622 27.0833 45.8332 27.0833V22.9167C42.1665 22.9792 38.7498 21.0625 36.8748 17.9167L34.7915 14.5833C34.0415 13.3333 32.7082 12.5 31.2498 12.5C30.6248 12.5 30.2082 12.7083 29.5832 12.7083L18.7498 17.2917V27.0833H22.9165V20L26.6665 18.5417L23.3332 35.4167L13.1248 33.3333L12.2915 37.5L26.8748 40.4167ZM8.33317 18.75C7.78064 18.75 7.25073 18.5305 6.86003 18.1398C6.46933 17.7491 6.24984 17.2192 6.24984 16.6667C6.24984 16.1141 6.46933 15.5842 6.86003 15.1935C7.25073 14.8028 7.78064 14.5833 8.33317 14.5833H14.5832V18.75H8.33317ZM10.4165 10.4167C9.86397 10.4167 9.33407 10.1972 8.94337 9.80647C8.55266 9.41577 8.33317 8.88587 8.33317 8.33333C8.33317 7.7808 8.55266 7.2509 8.94337 6.86019C9.33407 6.46949 9.86397 6.25 10.4165 6.25H20.8332V10.4167H10.4165ZM6.24984 27.0833C5.6973 27.0833 5.1674 26.8638 4.7767 26.4731C4.386 26.0824 4.1665 25.5525 4.1665 25C4.1665 24.4475 4.386 23.9176 4.7767 23.5269C5.1674 23.1362 5.6973 22.9167 6.24984 22.9167H14.5832V27.0833H6.24984Z" fill="#9579E5" fill-opacity="0.29"/>
</svg>
