<svg width="26" height="26" viewBox="0 0 26 26" fill="none" xmlns="http://www.w3.org/2000/svg">
    <path d="M13.2825 5.14308C13.2069 5.07076 13.1063 5.0304 13.0017 5.0304C12.8971 5.0304 12.7965 5.07076 12.7209 5.14308L3.37207 14.074C3.33237 14.112 3.30078 14.1576 3.27922 14.2081C3.25766 14.2587 3.24658 14.3131 3.24664 14.368L3.24512 22.75C3.24512 23.1809 3.41632 23.5943 3.72107 23.899C4.02582 24.2038 4.43914 24.375 4.87012 24.375H9.7502C9.96568 24.375 10.1723 24.2894 10.3247 24.137C10.4771 23.9846 10.5627 23.7779 10.5627 23.5625V16.6562C10.5627 16.5485 10.6055 16.4451 10.6817 16.3689C10.7579 16.2928 10.8612 16.25 10.9689 16.25H15.0314C15.1392 16.25 15.2425 16.2928 15.3187 16.3689C15.3949 16.4451 15.4377 16.5485 15.4377 16.6562V23.5625C15.4377 23.7779 15.5233 23.9846 15.6757 24.137C15.828 24.2894 16.0347 24.375 16.2502 24.375H21.1282C21.5592 24.375 21.9725 24.2038 22.2773 23.899C22.582 23.5943 22.7532 23.1809 22.7532 22.75V14.368C22.7533 14.3131 22.7422 14.2587 22.7207 14.2081C22.6991 14.1576 22.6675 14.112 22.6278 14.074L13.2825 5.14308Z" fill="white"/>
    <path d="M24.929 12.3982L21.1306 8.76434V3.25C21.1306 3.03451 21.045 2.82785 20.8926 2.67548C20.7403 2.5231 20.5336 2.4375 20.3181 2.4375H17.8806C17.6651 2.4375 17.4585 2.5231 17.3061 2.67548C17.1537 2.82785 17.0681 3.03451 17.0681 3.25V4.875L14.1269 2.06273C13.8516 1.78445 13.4423 1.625 13 1.625C12.5592 1.625 12.151 1.78445 11.8757 2.06324L1.07455 12.3972C0.758691 12.7019 0.719082 13.2031 1.0065 13.5332C1.07868 13.6165 1.16705 13.6843 1.26625 13.7324C1.36544 13.7804 1.47338 13.8078 1.5835 13.8129C1.69362 13.8179 1.80361 13.8005 1.90678 13.7616C2.00994 13.7228 2.10413 13.6634 2.18361 13.587L12.7207 3.51812C12.7963 3.4458 12.8969 3.40544 13.0015 3.40544C13.1062 3.40544 13.2068 3.4458 13.2824 3.51812L23.8205 13.587C23.9757 13.7359 24.1836 13.8171 24.3987 13.8129C24.6137 13.8088 24.8183 13.7195 24.9676 13.5647C25.2794 13.2417 25.2535 12.7085 24.929 12.3982Z" fill="white"/>
</svg>
