<svg width="26" height="34" viewBox="0 0 26 34" fill="none" xmlns="http://www.w3.org/2000/svg">
    <path d="M21.9375 22.3125H20.3125C20.3125 19.3131 20.3125 14.7815 12.1144 13.8083L12.2606 11.6917C21.9375 12.8403 21.9375 19.0017 21.9375 22.3125ZM13.7394 22.3083C4.0625 21.1597 4.0625 14.9983 4.0625 11.6875H5.6875C5.6875 14.6869 5.6875 19.2185 13.8856 20.1917L13.7394 22.3083Z" fill="white"/>
    <path d="M18.6875 21.8025C18.6875 16.8938 15.6162 16.3413 13.1462 15.895C10.4568 15.4062 8.93746 14.9812 8.93746 11.9531C8.93746 9.41375 10.9768 8.51063 12.7156 8.51063C14.6006 8.51063 16.0793 9.42438 17.2412 11.305L18.5087 9.96625C17.2737 7.96875 15.6975 6.81062 13.8125 6.48125V3.1875H12.1875V6.39625C9.24621 6.63 7.31246 8.7975 7.31246 11.9425C7.31246 16.9681 10.4243 17.5312 12.9268 17.9881C15.5675 18.4663 17.0625 18.8806 17.0625 21.7919C17.0625 25.0112 14.5193 25.4894 13 25.4894C10.2131 25.4894 9.03496 24.4694 7.94621 22.695L6.67871 24.0338C8.11684 26.3606 9.70934 27.4019 12.1875 27.5825V30.8125H13.8125V27.5825C16.8431 27.2637 18.6875 25.1069 18.6875 21.8025Z" fill="white"/>
</svg>
